<svg width="1080" height="1370" viewBox="0 0 1080 1370" fill="none" xmlns="http://www.w3.org/2000/svg">
<rect width="1080" height="1370" fill="#F5F5F5"/>
<path fill-rule="evenodd" clip-rule="evenodd" d="M539.537 353.729C668.673 353.729 773.358 458.121 773.358 586.895L773.361 612.568C797.056 616.534 815.111 637.085 815.111 661.841V720.132C815.111 745.333 796.402 766.175 772.08 769.602C763.453 852.064 711.72 921.744 639.75 955.84L639.746 1032.41H656.447C822.479 1032.41 957.074 1166.63 957.074 1332.19V1369.66H122V1332.19C122 1166.63 256.595 1032.41 422.627 1032.41H439.328L439.328 955.841C367.355 921.747 315.621 852.066 306.99 769.601C282.671 766.175 263.963 745.333 263.963 720.132V661.841C263.963 637.084 282.02 616.532 305.717 612.568L305.716 586.895C305.716 458.121 410.401 353.729 539.537 353.729Z" fill="#EAC7A8"/>
<path fill-rule="evenodd" clip-rule="evenodd" d="M439.322 955.837C469.696 970.227 503.674 978.279 539.539 978.279C575.4 978.279 609.376 970.229 639.748 955.841L639.749 978.053C612.364 996.592 579.308 1007.42 543.714 1007.42C504.42 1007.42 468.218 994.223 439.325 972.024L439.322 955.837Z" fill="black" fill-opacity="0.24"/>
<path fill-rule="evenodd" clip-rule="evenodd" d="M476.91 736.785C476.91 764.38 492.894 786.749 539.541 786.749C586.187 786.749 602.171 764.38 602.171 736.785C585.621 736.785 559.989 749.276 538.865 749.276C518.995 749.276 494.035 736.785 476.91 736.785Z" fill="black" fill-opacity="0.16"/>
<mask id="mask0" mask-type="alpha" maskUnits="userSpaceOnUse" x="122" y="1033" width="836" height="337">
<path fill-rule="evenodd" clip-rule="evenodd" d="M401.75 1038.02C401.75 1087.41 464.374 1127.45 541.625 1127.45C618.875 1127.45 681.499 1087.41 681.499 1038.02C681.499 1036.55 681.444 1035.09 681.335 1033.64C835.722 1046.25 957.074 1175.2 957.074 1332.41V1369.66H122V1332.41C122 1173.77 245.56 1043.92 401.944 1033.32C401.813 1034.88 401.75 1036.45 401.75 1038.02Z" fill="white"/>
</mask>
<g mask="url(#mask0)">
<path fill-rule="evenodd" clip-rule="evenodd" d="M401.75 1038.02C401.75 1087.41 464.374 1127.45 541.625 1127.45C618.875 1127.45 681.499 1087.41 681.499 1038.02C681.499 1036.55 681.444 1035.09 681.335 1033.64C835.722 1046.25 957.074 1175.2 957.074 1332.41V1369.66H122V1332.41C122 1173.77 245.56 1043.92 401.944 1033.32C401.813 1034.88 401.75 1036.45 401.75 1038.02Z" fill="#00A0F0"/>
<g opacity="0.6">
<g opacity="0.6">
<path opacity="0.6" d="M541.622 1156.33C633.02 1156.33 707.112 1106.15 707.112 1044.27C707.112 982.376 633.02 932.204 541.622 932.204C450.224 932.204 376.131 982.376 376.131 1044.27C376.131 1106.15 450.224 1156.33 541.622 1156.33Z" fill="black" fill-opacity="0.16"/>
</g>
</g>
</g>
<path d="M481.084 828.386C481.084 850.752 506.797 865.859 539.539 865.859C572.282 865.859 597.994 850.752 597.994 828.386C597.994 823.787 594.029 820.059 589.644 820.059C584.246 820.059 581.837 823.827 581.293 828.386C576.105 840.618 563.269 848.023 539.539 849.204C515.809 848.023 502.973 840.618 497.785 828.386C497.242 823.827 494.832 820.059 489.435 820.059C485.049 820.059 481.084 823.787 481.084 828.386Z" fill="black" fill-opacity="0.6"/>
<path d="M430.98 695.15C444.816 695.15 456.032 683.965 456.032 670.168C456.032 656.37 444.816 645.186 430.98 645.186C417.144 645.186 405.928 656.37 405.928 670.168C405.928 683.965 417.144 695.15 430.98 695.15Z" fill="black" fill-opacity="0.6"/>
<path d="M648.099 695.15C661.935 695.15 673.151 683.965 673.151 670.168C673.151 656.37 661.935 645.186 648.099 645.186C634.263 645.186 623.047 656.37 623.047 670.168C623.047 683.965 634.263 695.15 648.099 695.15Z" fill="black" fill-opacity="0.6"/>
<path d="M370.977 616.7C387.323 593.764 432.136 580.902 470.738 590.355C475.217 591.452 479.739 588.72 480.839 584.254C481.939 579.788 479.2 575.278 474.721 574.181C429.892 563.203 377.999 578.097 357.363 607.052C354.691 610.801 355.573 616 359.332 618.664C363.092 621.328 368.305 620.449 370.977 616.7Z" fill="black" fill-opacity="0.6"/>
<path d="M708.094 616.7C691.748 593.764 646.934 580.902 608.333 590.355C603.854 591.452 599.331 588.72 598.231 584.254C597.131 579.788 599.871 575.278 604.349 574.181C649.179 563.203 701.071 578.097 721.707 607.052C724.379 610.801 723.497 616 719.738 618.664C715.979 621.328 710.765 620.449 708.094 616.7Z" fill="black" fill-opacity="0.6"/>
<mask id="mask1" mask-type="alpha" maskUnits="userSpaceOnUse" x="305" y="611" width="477" height="372">
<path fill-rule="evenodd" clip-rule="evenodd" d="M616.483 912.362C605.988 921.914 594.808 926.209 580.677 923.205C578.246 922.689 568.332 904.309 543.712 904.309C519.092 904.309 509.18 922.689 506.747 923.205C492.617 926.209 481.436 921.914 470.941 912.362C451.212 894.404 434.805 869.641 444.664 842.623C449.802 828.541 458.158 813.08 473.36 808.592C489.593 803.803 512.385 808.584 528.743 805.313C534.043 804.252 539.832 802.367 543.712 799.241C547.592 802.367 553.383 804.252 558.68 805.313C575.04 808.584 597.831 803.803 614.064 808.592C629.266 813.08 637.622 828.541 642.762 842.623C652.621 869.641 636.213 894.404 616.483 912.362ZM777.872 611.876C763.632 646.852 769.132 690.395 766.497 727.109C764.356 756.951 758.064 801.68 731.491 820.953C717.902 830.808 693.167 847.373 675.412 842.752C663.189 839.572 661.885 804.613 645.823 791.526C627.603 776.684 604.853 770.162 581.914 771.169C572.016 771.604 551.997 771.501 543.713 779.091C535.428 771.501 515.411 771.604 505.513 771.169C482.572 770.162 459.822 776.684 441.602 791.526C425.54 804.613 424.237 839.572 412.015 842.752C394.259 847.373 369.524 830.808 355.934 820.953C329.359 801.68 323.07 756.951 320.927 727.109C318.293 690.395 323.793 646.852 309.553 611.876C302.626 611.876 307.195 679.031 307.195 679.031V763.788C307.327 827.442 347.199 922.716 435.604 959.097C457.225 967.994 506.198 982.442 543.713 982.442C581.227 982.442 630.2 969.369 651.821 960.472C740.226 924.092 780.098 827.442 780.231 763.788V679.031C780.231 679.031 784.799 611.876 777.872 611.876Z" fill="white"/>
</mask>
<g mask="url(#mask1)">
<path fill-rule="evenodd" clip-rule="evenodd" d="M616.483 912.362C605.988 921.914 594.808 926.209 580.677 923.205C578.246 922.689 568.332 904.309 543.712 904.309C519.092 904.309 509.18 922.689 506.747 923.205C492.617 926.209 481.436 921.914 470.941 912.362C451.212 894.404 434.805 869.641 444.664 842.623C449.802 828.541 458.158 813.08 473.36 808.592C489.593 803.803 512.385 808.584 528.743 805.313C534.043 804.252 539.832 802.367 543.712 799.241C547.592 802.367 553.383 804.252 558.68 805.313C575.04 808.584 597.831 803.803 614.064 808.592C629.266 813.08 637.622 828.541 642.762 842.623C652.621 869.641 636.213 894.404 616.483 912.362ZM777.872 611.876C763.632 646.852 769.132 690.395 766.497 727.109C764.356 756.951 758.064 801.68 731.491 820.953C717.902 830.808 693.167 847.373 675.412 842.752C663.189 839.572 661.885 804.613 645.823 791.526C627.603 776.684 604.853 770.162 581.914 771.169C572.016 771.604 551.997 771.501 543.713 779.091C535.428 771.501 515.411 771.604 505.513 771.169C482.572 770.162 459.822 776.684 441.602 791.526C425.54 804.613 424.237 839.572 412.015 842.752C394.259 847.373 369.524 830.808 355.934 820.953C329.359 801.68 323.07 756.951 320.927 727.109C318.293 690.395 323.793 646.852 309.553 611.876C302.626 611.876 307.195 679.031 307.195 679.031V763.788C307.327 827.442 347.199 922.716 435.604 959.097C457.225 967.994 506.198 982.442 543.713 982.442C581.227 982.442 630.2 969.369 651.821 960.472C740.226 924.092 780.098 827.442 780.231 763.788V679.031C780.231 679.031 784.799 611.876 777.872 611.876Z" fill="#4A312C"/>
</g>
<path fill-rule="evenodd" clip-rule="evenodd" d="M535.39 218.198C726.925 275.787 731.486 266.927 767.969 253.638C761.888 294.984 740.606 318.61 704.123 324.516C740.606 336.329 783.17 330.423 831.814 306.797C827.038 362.464 810.611 407.388 785.606 441.866C781.184 579.11 773.624 650.918 762.92 657.286C753.31 663.003 746.234 605.919 741.691 486.033C655.199 549.3 519.991 541.23 392.112 467.25C368.663 494.024 348.313 512.593 331.061 522.955C326.552 604.847 320.191 648.238 311.98 653.122C303.804 657.987 297.461 617.386 292.953 531.32L293.888 531.619C248.55 518.235 264.01 397.624 302.812 364.071C306.219 361.125 310.088 358.853 314.417 357.256C313.149 339.407 315.363 322.588 321.052 306.797C352.975 218.198 444.093 190.748 535.39 218.198Z" fill="#4A312C"/>
<path fill-rule="evenodd" clip-rule="evenodd" d="M616.448 599.517L713.696 601.417L716.65 601.54C734.595 602.428 747.645 605.884 757.736 620.226L761.96 620.459C773.295 621.135 785.113 622.368 795.241 627.029C809.374 633.533 811.558 648.261 793.742 650.29C785.718 651.205 777.685 649.694 769.784 648.288L768.367 648.064C772.976 687.456 742.45 734.953 708.961 749.432C663.128 769.249 611.926 747.317 587.693 707.656C576.728 689.709 570.397 663.873 569.046 641.617C565.625 639.962 562.364 637.775 559.239 636.256C550.859 632.184 536.95 631.681 527.897 636.256C524.786 637.828 521.516 640.031 518.077 641.685C516.72 663.925 510.39 689.734 499.433 707.665C475.202 747.328 424 769.259 378.167 749.442C344.674 734.962 314.145 687.458 318.762 648.064L317.352 648.288L313.696 648.935C306.979 650.101 300.183 651.064 293.394 650.29C275.578 648.261 277.762 633.533 291.894 627.029C303.287 621.786 316.819 620.88 329.399 620.23C339.488 605.893 352.536 602.438 370.477 601.55L373.43 601.428L474.263 599.443C494.404 599.065 511.562 600.55 516.744 618.704C525.465 615.315 535.556 613.478 543.257 613.478C551.018 613.478 561.415 615.343 570.361 618.784C575.813 599.473 594.751 598.936 616.448 599.517ZM475.566 629.714L469.282 629.625C448.74 629.435 364.245 629.168 354.215 637.479C344.237 645.746 349.698 670.472 352.297 680.811C356.739 698.48 366.84 716.219 381.591 727.428C394.069 736.911 410.045 737.567 425.124 736.118L426.022 736.018C425.028 736.066 432.143 735.072 433.601 734.797L433.737 734.77C438.198 733.814 442.66 732.554 446.886 730.808C454.844 727.521 462.326 722.708 468.461 716.67C480.106 705.203 485.108 689.832 488.116 674.143C490.087 663.869 491.749 652.141 490.04 641.71C488.459 632.055 484.245 630.009 475.566 629.714ZM624.058 629.571L613.358 629.666C603.456 629.76 598.774 631.401 597.087 641.699C595.378 652.13 597.04 663.858 599.01 674.132C602.019 689.821 607.022 705.192 618.667 716.659C624.801 722.697 632.283 727.511 640.241 730.799C643.763 732.252 647.449 733.37 651.161 734.255L653.391 734.76C654.413 734.978 661.468 735.965 661.191 736.008L660.561 735.962C676.058 737.589 692.66 737.203 705.537 727.418C720.287 716.208 730.389 698.47 734.83 680.801L735.615 677.567C738.311 666.004 741.961 644.967 732.912 637.469C723.699 629.834 651.649 629.438 624.058 629.571Z" fill="black" fill-opacity="0.16"/>
<path fill-rule="evenodd" clip-rule="evenodd" d="M476.951 617.194C487.435 617.294 492.39 619.064 494.177 630.163C495.986 641.405 494.227 654.044 492.14 665.117C488.955 682.025 483.659 698.591 471.331 710.948C464.836 717.457 456.915 722.644 448.49 726.186C444.016 728.067 439.292 729.426 434.569 730.456C433.188 730.757 421.4 732.405 428.63 731.568C411.758 733.522 393.454 733.445 379.363 722.544C363.747 710.462 353.052 691.345 348.35 672.303C345.599 661.161 339.818 634.512 350.381 625.603C362.481 615.396 476.951 617.194 476.951 617.194Z" fill="#150662" fill-opacity="0.7"/>
<path fill-rule="evenodd" clip-rule="evenodd" d="M610.184 617.183C599.7 617.284 594.744 619.052 592.958 630.151C591.148 641.393 592.908 654.032 594.993 665.105C598.179 682.013 603.476 698.579 615.804 710.937C622.299 717.445 630.219 722.632 638.644 726.176C643.118 728.056 647.843 729.414 652.566 730.445C653.947 730.745 665.733 732.395 658.505 731.556C675.376 733.511 693.681 733.433 707.772 722.532C723.388 710.451 734.082 691.335 738.785 672.292C741.536 661.149 747.316 634.502 736.754 625.592C724.654 615.385 610.184 617.183 610.184 617.183Z" fill="#150662" fill-opacity="0.7"/>
<path fill-rule="evenodd" clip-rule="evenodd" d="M473.773 621.349C483.675 621.442 488.357 623.083 490.044 633.382C491.753 643.813 490.091 655.541 488.12 665.815C485.112 681.504 480.109 696.875 468.464 708.341C462.33 714.38 454.848 719.193 446.89 722.48C442.664 724.226 438.201 725.486 433.74 726.442C432.436 726.721 421.301 728.251 428.13 727.473C412.194 729.287 394.904 729.215 381.594 719.1C366.844 707.89 356.742 690.152 352.3 672.483C349.702 662.144 344.241 637.418 354.219 629.151C365.648 619.68 473.773 621.349 473.773 621.349ZM373.433 593.099C350.718 593.879 335.558 597.86 324.354 620.491C303.821 661.965 338.965 724.165 378.17 741.114C424.003 760.931 475.205 739 499.437 699.337C512.269 678.337 518.756 646.53 518.338 622.301C517.806 591.376 496.145 590.518 470.683 591.198L373.433 593.099Z" fill="#252C2F"/>
<path fill-rule="evenodd" clip-rule="evenodd" d="M613.359 621.338C603.456 621.432 598.775 623.073 597.088 633.371C595.379 643.802 597.041 655.53 599.01 665.804C602.02 681.493 607.023 696.864 618.668 708.331C624.802 714.369 632.284 719.183 640.242 722.471C644.468 724.215 648.93 725.475 653.392 726.432C654.696 726.711 665.829 728.241 659.001 727.463C674.938 729.277 692.227 729.205 705.537 719.09C720.288 707.88 730.39 690.142 734.831 672.473C737.43 662.133 742.889 637.408 732.913 629.141C721.484 619.67 613.359 621.338 613.359 621.338ZM713.697 593.089C736.414 593.869 751.574 597.851 762.778 620.48C783.309 661.954 748.166 724.154 708.962 741.104C663.128 760.921 611.926 738.989 587.694 699.328C574.863 678.326 568.376 646.52 568.792 622.29C569.325 591.365 590.987 590.507 616.449 591.189L713.697 593.089Z" fill="#252C2F"/>
<path fill-rule="evenodd" clip-rule="evenodd" d="M335.764 611.571C321.518 612.37 305.239 612.561 291.894 618.702C277.762 625.206 275.578 639.934 293.394 641.963C301.418 642.878 309.451 641.367 317.352 639.961C323.823 638.809 332.612 639.182 338.727 636.716C350.122 632.122 349.39 610.794 335.764 611.571Z" fill="#252C2F"/>
<path fill-rule="evenodd" clip-rule="evenodd" d="M751.371 611.571C765.617 612.37 781.896 612.561 795.241 618.702C809.373 625.206 811.557 639.934 793.741 641.963C785.717 642.878 777.684 641.367 769.783 639.961C763.313 638.809 754.523 639.182 748.408 636.716C737.012 632.122 737.745 610.794 751.371 611.571Z" fill="#252C2F"/>
<path fill-rule="evenodd" clip-rule="evenodd" d="M585.92 620.255C577.794 610.679 556.616 605.149 543.256 605.149C529.895 605.149 509.338 610.679 501.213 620.255C497.115 625.084 496.976 631.544 504.078 634.571C512.921 638.342 520.818 631.504 527.896 627.927C536.949 623.353 550.858 623.855 559.237 627.927C566.37 631.394 574.211 638.342 583.055 634.571C590.157 631.544 590.018 625.084 585.92 620.255Z" fill="#252C2F"/>
<path fill-rule="evenodd" clip-rule="evenodd" d="M792.044 1264.31C808.55 1261.52 822.354 1251.95 831.089 1238.96C830.877 1238.29 830.649 1237.63 830.404 1236.97C828.44 1231.67 825.492 1226.76 821.798 1222.51C818.101 1218.27 813.646 1214.7 808.678 1212.01C803.714 1209.33 798.229 1207.56 792.638 1206.82C791.242 1206.62 789.838 1206.52 788.437 1206.45L787.387 1206.42L786.365 1206.4H785.047H779.773H733.138C729.167 1206.4 726.444 1210.4 727.906 1214.1L737.433 1238.18C738.282 1240.32 740.355 1241.73 742.665 1241.73H779.773H785.047H786.365L786.661 1241.75L786.929 1241.75C787.283 1241.78 787.635 1241.79 787.979 1241.85C789.355 1242.03 790.675 1242.45 791.898 1243.11C794.344 1244.43 796.339 1246.71 797.284 1249.29C797.759 1250.58 797.998 1251.94 798.001 1253.38C797.994 1254.82 797.728 1256.17 797.243 1257.46C796.291 1260.04 794.253 1262.3 791.802 1263.59C790.577 1264.24 789.254 1264.65 787.872 1264.82L787.613 1264.86L787.349 1264.87C787.175 1264.89 786.998 1264.91 786.82 1264.9L786.551 1264.91L786.419 1264.92H786.094H784.775H779.502H777.156C782.107 1265.34 787.11 1265.15 792.044 1264.31" fill="#3100F0"/>
<path fill-rule="evenodd" clip-rule="evenodd" d="M831.085 1238.96C822.35 1251.95 808.545 1261.52 792.04 1264.31C787.104 1265.15 782.103 1265.34 777.151 1264.92H758.401L743.033 1264.89C740.861 1264.89 738.951 1266.33 738.352 1268.41L724.887 1315.33C732.905 1306.17 744.514 1300.24 757.52 1299.73C758.789 1299.47 760.096 1299.35 761.412 1299.41L779.496 1300.22H784.77H786.09H786.425L786.949 1300.21L787.999 1300.19C788.7 1300.17 789.401 1300.12 790.101 1300.07L791.152 1299.98L792.202 1299.86C796.724 1299.3 801.185 1298.07 805.361 1296.23L805.396 1296.25C806.377 1295.81 807.342 1295.34 808.287 1294.84C818.277 1289.58 826.229 1280.68 830.241 1270.08C832.261 1264.8 833.312 1259.14 833.331 1253.54C833.351 1248.64 832.598 1243.68 831.085 1238.96" fill="#3100F0"/>
<mask id="mask2" mask-type="alpha" maskUnits="userSpaceOnUse" x="724" y="1299" width="34" height="24">
<path fill-rule="evenodd" clip-rule="evenodd" d="M724.135 1299.73H757.522V1322.11H724.135V1299.73Z" fill="white"/>
</mask>
<g mask="url(#mask2)">
<path fill-rule="evenodd" clip-rule="evenodd" d="M724.889 1315.32L724.288 1317.42C723.277 1320.94 727.492 1323.6 730.235 1321.17L750.353 1303.33C752.405 1301.51 754.882 1300.28 757.522 1299.73C744.517 1300.23 732.907 1306.17 724.889 1315.32" fill="#3100F0"/>
</g>
</svg>
