<svg xmlns="http://www.w3.org/2000/svg" version="1.1" xmlns:xlink="http://www.w3.org/1999/xlink" xmlns:svgjs="http://svgjs.dev/svgjs" width="2000" height="818" viewBox="0 0 2000 818"><g transform="matrix(1,0,0,1,-1.2121212121212466,1.0165746466354904)"><svg viewBox="0 0 396 162" data-background-color="#a6d8eb" preserveAspectRatio="xMidYMid meet" height="818" width="2000" xmlns="http://www.w3.org/2000/svg" xmlns:xlink="http://www.w3.org/1999/xlink"><g id="tight-bounds" transform="matrix(1,0,0,1,0.2400000000000091,-0.20132651926033418)"><svg viewBox="0 0 395.52 162.40265303852067" height="162.40265303852067" width="395.52"><g><svg viewBox="0 0 397.4975999999999 163.21466630371324" height="162.40265303852067" width="395.52"><g><rect width="397.4975999999999" height="4.999049660766937" x="0" y="89.69560560024553" fill="#027be0" opacity="1" stroke-width="0" stroke="transparent" fill-opacity="1" class="rect-r$-0" data-fill-palette-color="secondary" rx="1%" id="r$-0" data-palette-color="#027be0"></rect></g><g transform="matrix(1,0,0,1,0.9887999999999693,107.78117269757513)"><svg viewBox="0 0 395.52 55.43349360613811" height="55.43349360613811" width="395.52"><g id="textblocktransform"><svg viewBox="0 0 395.52 55.43349360613811" height="55.43349360613811" width="395.52" id="textblock"><g><svg viewBox="0 0 395.52 55.43349360613811" height="55.43349360613811" width="395.52"><g transform="matrix(1,0,0,1,0,0)"><svg width="395.52" viewBox="-0.1 -33.45 238.63 33.45" height="55.43349360613811" data-palette-color="#ffffff"><path d="M20.46-20.29L20.46-22.85 12.3-22.85 12.3-28.66 21.85-28.66 21.85-31.25 9.69-31.25 9.69-11.06 12.3-11.06 12.3-20.29 20.46-20.29ZM10.69-33.45L18.21-33.45Q20.68-33.45 22.68-32.71 24.68-31.98 26.09-30.71 27.49-29.44 28.25-27.75 29-26.05 29-24.15L29-24.15 29-9.3Q29-7.4 28.25-5.7 27.49-4 26.09-2.73 24.68-1.46 22.68-0.73 20.68 0 18.21 0L18.21 0 10.69 0Q8.23 0 6.23-0.73 4.22-1.46 2.82-2.73 1.42-4 0.66-5.7-0.1-7.4-0.1-9.3L-0.1-9.3-0.1-24.15Q-0.1-26.05 0.66-27.75 1.42-29.44 2.82-30.71 4.22-31.98 6.23-32.71 8.23-33.45 10.69-33.45L10.69-33.45ZM43.41-13.65L37.64-13.65 37.64-11.06 51.76-11.06 51.76-13.65 46.02-13.65 46.02-28.66 51.76-28.66 51.76-31.25 37.64-31.25 37.64-28.66 43.41-28.66 43.41-13.65ZM39.6-33.45L47.12-33.45Q49.58-33.45 51.58-32.71 53.59-31.98 54.99-30.71 56.39-29.44 57.15-27.75 57.91-26.05 57.91-24.15L57.91-24.15 57.91-9.3Q57.91-7.4 57.15-5.7 56.39-4 54.99-2.73 53.59-1.46 51.58-0.73 49.58 0 47.12 0L47.12 0 39.6 0Q37.13 0 35.13-0.73 33.13-1.46 31.72-2.73 30.32-4 29.56-5.7 28.81-7.4 28.81-9.3L28.81-9.3 28.81-24.15Q28.81-26.05 29.56-27.75 30.32-29.44 31.72-30.71 33.13-31.98 35.13-32.71 37.13-33.45 39.6-33.45L39.6-33.45ZM80.66-28.66L80.66-31.25 66.55-31.25 66.55-28.66 72.31-28.66 72.31-11.06 74.92-11.06 74.92-28.66 80.66-28.66ZM68.5-33.45L76.02-33.45Q78.49-33.45 80.49-32.71 82.49-31.98 83.89-30.71 85.3-29.44 86.05-27.75 86.81-26.05 86.81-24.15L86.81-24.15 86.81-9.3Q86.81-7.4 86.05-5.7 85.3-4 83.89-2.73 82.49-1.46 80.49-0.73 78.49 0 76.02 0L76.02 0 68.5 0Q66.04 0 64.03-0.73 62.03-1.46 60.63-2.73 59.22-4 58.47-5.7 57.71-7.4 57.71-9.3L57.71-9.3 57.71-24.15Q57.71-26.05 58.47-27.75 59.22-29.44 60.63-30.71 62.03-31.98 64.03-32.71 66.04-33.45 68.5-33.45L68.5-33.45ZM104.6-33.45L112.12-33.45Q114.59-33.45 116.59-32.71 118.59-31.98 120-30.71 121.4-29.44 122.16-27.75 122.91-26.05 122.91-24.15L122.91-24.15 122.91-9.3Q122.91-7.4 122.16-5.7 121.4-4 120-2.73 118.59-1.46 116.59-0.73 114.59 0 112.12 0L112.12 0 104.6 0Q102.14 0 100.14-0.73 98.13-1.46 96.73-2.73 95.33-4 94.57-5.7 93.81-7.4 93.81-9.3L93.81-9.3 93.81-24.15Q93.81-26.05 94.57-27.75 95.33-29.44 96.73-30.71 98.13-31.98 100.14-32.71 102.14-33.45 104.6-33.45L104.6-33.45ZM116.71-14.99L116.71-18.7 116.37-20.8 114.81-22.34 112.27-22.61 106.8-22.61 105.31-22.9Q105.19-23.32 105.14-23.65 105.09-23.97 104.97-24.34L104.97-24.34 104.97-26.9 105.31-28.34 106.92-28.66 113.12-28.66 115.42-28.2 116.01-30.86 113.17-31.25 106.75-31.25 104.31-30.91 102.72-29.35 102.41-27.29 102.41-23.95 102.72-21.9 104.31-20.36 106.75-20.04 112.27-20.04 113.76-19.8Q113.83-19.43 113.93-19.12 114.03-18.8 114.1-18.46L114.1-18.46 114.1-15.26Q114.05-14.94 113.94-14.58 113.83-14.21 113.76-13.89L113.76-13.89 112.17-13.65 106.12-13.65 103.73-14.04 103.12-11.4 105.97-11.06 112.32-11.06 114.81-11.35 116.37-12.89 116.71-14.99ZM133.51-33.45L141.03-33.45Q143.49-33.45 145.5-32.71 147.5-31.98 148.9-30.71 150.3-29.44 151.06-27.75 151.82-26.05 151.82-24.15L151.82-24.15 151.82-9.3Q151.82-7.4 151.06-5.7 150.3-4 148.9-2.73 147.5-1.46 145.5-0.73 143.49 0 141.03 0L141.03 0 133.51 0Q131.04 0 129.04-0.73 127.04-1.46 125.63-2.73 124.23-4 123.47-5.7 122.72-7.4 122.72-9.3L122.72-9.3 122.72-24.15Q122.72-26.05 123.47-27.75 124.23-29.44 125.63-30.71 127.04-31.98 129.04-32.71 131.04-33.45 133.51-33.45L133.51-33.45ZM146.11-14.99L146.11-27.29 145.76-29.35 144.23-30.91 141.71-31.25 135.17-31.25 132.68-30.91 131.12-29.35 130.82-27.29 130.82-14.99 131.12-12.89 132.73-11.35 135.17-11.06 139.51-11.06 141.42-7.3 143.71-8.4 142.37-11.16 144.23-11.35 145.76-12.89 146.11-14.99ZM143.52-15.26L143.18-13.89 141.56-13.65 141.08-13.65 139.61-16.5 137.37-15.26 138.12-13.65 135.31-13.65 133.73-13.89 133.36-15.36 133.36-27.05 133.61-28.39 135.31-28.66 141.56-28.66 143.27-28.39 143.52-26.95 143.52-15.26ZM162.41-33.45L169.93-33.45Q172.4-33.45 174.4-32.71 176.4-31.98 177.8-30.71 179.21-29.44 179.97-27.75 180.72-26.05 180.72-24.15L180.72-24.15 180.72-9.3Q180.72-7.4 179.97-5.7 179.21-4 177.8-2.73 176.4-1.46 174.4-0.73 172.4 0 169.93 0L169.93 0 162.41 0Q159.95 0 157.94-0.73 155.94-1.46 154.54-2.73 153.13-4 152.38-5.7 151.62-7.4 151.62-9.3L151.62-9.3 151.62-24.15Q151.62-26.05 152.38-27.75 153.13-29.44 154.54-30.71 155.94-31.98 157.94-32.71 159.95-33.45 162.41-33.45L162.41-33.45ZM174.81-14.99L174.81-31.25 172.23-31.25 172.23-15.26Q172.18-14.94 172.07-14.58 171.96-14.21 171.86-13.89L171.86-13.89 170.27-13.65 164.02-13.65 162.41-13.89 162.07-15.36 162.07-31.25 159.53-31.25 159.53-14.99 159.82-12.89 161.41-11.35 163.88-11.06 170.42-11.06 172.91-11.35 174.47-12.89 174.81-14.99ZM199.42-11.35L201.84-11.08 201.84-16.65 201.84-27.34 201.84-29.39 200.18-30.96 197.74-31.25 192.17-31.25 189.31-30.91 189.92-28.25 192.22-28.71 197.66-28.71 199.13-28.39 199.47-27.1 199.47-21.41 197.74-21.7 192.17-21.7 189.73-21.34 188.17-19.8 187.82-17.8 187.82-14.94 188.17-12.89 189.73-11.35 192.17-11.06 197.52-11.06 199.42-11.35ZM199.47-15.21L199.47-13.89 197.57-13.65 192.32-13.65 190.78-13.89 190.44-15.36 190.44-17.46 190.63-18.85 192.32-19.09 197.61-19.09 199.47-18.9 199.47-15.21ZM191.32-33.45L198.84-33.45Q201.3-33.45 203.3-32.71 205.3-31.98 206.71-30.71 208.11-29.44 208.87-27.75 209.63-26.05 209.63-24.15L209.63-24.15 209.63-9.3Q209.63-7.4 208.87-5.7 208.11-4 206.71-2.73 205.3-1.46 203.3-0.73 201.3 0 198.84 0L198.84 0 191.32 0Q188.85 0 186.85-0.73 184.85-1.46 183.44-2.73 182.04-4 181.28-5.7 180.52-7.4 180.52-9.3L180.52-9.3 180.52-24.15Q180.52-26.05 181.28-27.75 182.04-29.44 183.44-30.71 184.85-31.98 186.85-32.71 188.85-33.45 191.32-33.45L191.32-33.45ZM220.22-33.45L227.74-33.45Q230.2-33.45 232.21-32.71 234.21-31.98 235.61-30.71 237.02-29.44 237.77-27.75 238.53-26.05 238.53-24.15L238.53-24.15 238.53-9.3Q238.53-7.4 237.77-5.7 237.02-4 235.61-2.73 234.21-1.46 232.21-0.73 230.2 0 227.74 0L227.74 0 220.22 0Q217.75 0 215.75-0.73 213.75-1.46 212.35-2.73 210.94-4 210.19-5.7 209.43-7.4 209.43-9.3L209.43-9.3 209.43-24.15Q209.43-26.05 210.19-27.75 210.94-29.44 212.35-30.71 213.75-31.98 215.75-32.71 217.75-33.45 220.22-33.45L220.22-33.45ZM232.82-14.99L232.82-27.29 232.48-29.35 230.94-30.91 228.42-31.25 217.53-31.25 217.53-11.06 228.42-11.06 230.94-11.35 232.48-12.89 232.82-14.99ZM230.23-15.26L229.89-13.89 228.28-13.65 220.07-13.65 220.07-28.66 228.28-28.66 229.98-28.39 230.23-26.95 230.23-15.26Z" opacity="1" transform="matrix(1,0,0,1,0,0)" fill="#ffffff" class="wordmark-text-0" data-fill-palette-color="primary" id="text-0"></path></svg></g></svg></g></svg></g></svg></g><g transform="matrix(1,0,0,1,151.22852919116593,0)"><svg viewBox="0 0 95.04054161766804 76.60908816368287" height="76.60908816368287" width="95.04054161766804"><g><svg xmlns="http://www.w3.org/2000/svg" xmlns:xlink="http://www.w3.org/1999/xlink" version="1.1" x="8" y="0" viewBox="0.11598789356218303 1.6504142605176868 99.76868037800405 96.6995857394823" enable-background="new 0 0 100 100" xml:space="preserve" height="76.60908816368287" width="79.04054161766804" class="icon-icon-0" data-fill-palette-color="accent" id="icon-0"><path d="M34.446 42.001c-1.112 0.159-2.285-0.104-3.258-0.827-1.956-1.452-2.365-4.216-0.913-6.17l13.492-18.168c0.7-0.942 1.745-1.567 2.906-1.736 0.002-0.001 0.006-0.001 0.009-0.001 1.158-0.167 2.333 0.133 3.273 0.835l18.199 13.613c1.95 1.457 2.35 4.222 0.888 6.174-1.459 1.95-4.226 2.346-6.175 0.887l-14.655-10.96L37.36 40.263C36.631 41.246 35.569 41.839 34.446 42.001z" fill="#fffdfd" data-fill-palette-color="accent"></path><path d="M37.94 85.521c-2.229 0-4.24-1.536-4.75-3.804-0.593-2.626 1.055-5.235 3.682-5.83L55.894 71.6 40.896 56.601c-1.904-1.903-1.904-4.99 0-6.895 1.904-1.904 4.991-1.903 6.895 0l21.25 21.253c1.258 1.255 1.73 3.096 1.238 4.803-0.494 1.704-1.878 3.008-3.61 3.4l-27.649 6.239C38.657 85.483 38.295 85.521 37.94 85.521z" fill="#fffdfd" data-fill-palette-color="accent"></path><path d="M4.914 98.35c-1.225 0-2.449-0.467-3.385-1.397-1.878-1.871-1.885-4.907-0.015-6.786l31.843-31.978 6.799 6.77L8.314 96.937C7.376 97.878 6.145 98.35 4.914 98.35z" fill="#fffdfd" data-fill-palette-color="accent"></path><path d="M99.487 45.821c-1.032-2.322-3.749-3.367-6.071-2.336l-16.75 7.44-4.405-9.91-4.357 12.849 2.372 5.336 0.081-0.037c1.134 2.088 3.699 2.99 5.906 2.009l20.889-9.281C99.473 50.859 100.519 48.14 99.487 45.821z" fill="#fffdfd" data-fill-palette-color="accent"></path><path d="M82.816 13.476c0.135-1.391 0.347-3.886 0.439-6.67 0.203-5.961-7.322-6.302-10.922-3.315-3.791 3.142-10.838 7.478-18.842 4.599 3.779 5.706 13.424 5.419 21.968 3.035 2.521-0.703 3.584 1.367 4.023 2.931-3.64 1.329-6.243 4.811-6.243 8.911 0 5.24 4.251 9.499 9.496 9.499 5.243 0 9.495-4.259 9.495-9.499C92.231 17.749 88.022 13.52 82.816 13.476z" fill="#fffdfd" data-fill-palette-color="accent"></path></svg></g></svg></g><g><rect width="74.69540919116596" height="4.999049660766937" y="70.61003850291593" x="246.269070808834" fill="#027be0" data-fill-palette-color="secondary"></rect><rect width="74.69540919116596" height="4.999049660766937" y="70.61003850291593" x="76.53311999999997" fill="#027be0" data-fill-palette-color="secondary"></rect></g></svg></g><defs></defs></svg><rect width="395.52" height="162.40265303852067" fill="none" stroke="none" visibility="hidden"></rect></g></svg></g></svg>